<svg xmlns="http://www.w3.org/2000/svg" xmlns:xlink="http://www.w3.org/1999/xlink" width="22" height="22" viewBox="0 0 22 22"><defs><style>.a,.c{fill:none;}.b{clip-path:url(#a);}.c{stroke:#000;stroke-linecap:round;stroke-linejoin:round;stroke-miterlimit:10;stroke-width:1.2px;stroke-dasharray:0 0;}</style><clipPath id="a"><rect class="a" width="22" height="22" transform="translate(0.318 -0.429)"/></clipPath></defs><g transform="translate(-0.318 0.429)"><rect class="a" width="22" height="22" transform="translate(0.318 -0.429)"/><g class="b"><g transform="translate(3.303 3.303)"><path class="c" d="M0,11.332.89,7.139a1.588,1.588,0,0,1,.431-.8L7.194.468a1.6,1.6,0,0,1,2.257,0l1.4,1.4a1.6,1.6,0,0,1,0,2.257L4.982,10a1.539,1.539,0,0,1-.789.44Z" transform="translate(4.845)"/><path class="c" d="M13.8,3.716v8.3a1.772,1.772,0,0,1-1.771,1.771H1.771A1.772,1.772,0,0,1,0,12.02V1.771A1.772,1.772,0,0,1,1.771,0h8.276" transform="translate(0 2.349)"/></g></g></g></svg>